<svg width="64" height="64" viewBox="0 0 64 64" fill="none" xmlns="http://www.w3.org/2000/svg">
  <rect x="4" y="4" width="56" height="56" rx="18" fill="#FFD84D" stroke="#1B2240" stroke-width="4"/>
  <path d="M20 24C20 20.6863 22.6863 18 26 18H38C41.3137 18 44 20.6863 44 24V36C44 39.3137 41.3137 42 38 42H31.5L25.5 47V42H26C22.6863 42 20 39.3137 20 36V24Z" fill="#4CC9F0" stroke="#1B2240" stroke-width="3.5" stroke-linejoin="round"/>
  <path d="M26 29.5H31.5" stroke="#1B2240" stroke-width="3.5" stroke-linecap="round"/>
  <path d="M28.5 25V34" stroke="#1B2240" stroke-width="3.5" stroke-linecap="round"/>
  <path d="M35 25V34" stroke="#1B2240" stroke-width="3.5" stroke-linecap="round"/>
  <path d="M35 25H39.5" stroke="#1B2240" stroke-width="3.5" stroke-linecap="round"/>
  <path d="M35 29.5H39" stroke="#1B2240" stroke-width="3.5" stroke-linecap="round"/>
  <circle cx="47" cy="18" r="6" fill="#FF7AA2" stroke="#1B2240" stroke-width="3"/>
  <path d="M47 13.8L48.3 16.5L51.2 16.9L49.1 19L49.6 21.9L47 20.5L44.4 21.9L44.9 19L42.8 16.9L45.7 16.5L47 13.8Z" fill="#FFF9E8"/>
</svg>
