<svg width="1200" height="850" viewBox="0 0 1200 850" fill="none" xmlns="http://www.w3.org/2000/svg">
  <rect width="1200" height="850" rx="48" fill="#FFF9EF"/>
  <path d="M0 0H1200V850H0V0Z" fill="url(#paint0_radial)"/>
  <path d="M95 82C95 55.4903 116.49 34 143 34H1057C1083.51 34 1105 55.4903 1105 82V768C1105 794.51 1083.51 816 1057 816H143C116.49 816 95 794.51 95 768V82Z" fill="#FFFDF8" stroke="#1B2240" stroke-width="10"/>
  <rect x="122" y="61" width="956" height="728" rx="34" stroke="#1B2240" stroke-width="4" stroke-dasharray="12 14"/>
  <circle cx="154" cy="133" r="24" fill="#FF7AA2" stroke="#1B2240" stroke-width="4"/>
  <circle cx="1046" cy="133" r="24" fill="#4CC9F0" stroke="#1B2240" stroke-width="4"/>
  <circle cx="154" cy="717" r="24" fill="#95D46B" stroke="#1B2240" stroke-width="4"/>
  <circle cx="1046" cy="717" r="24" fill="#FFD84D" stroke="#1B2240" stroke-width="4"/>
  <path d="M150 118L155.617 129.383L168 131.18L159 139.954L161.124 152.32L150 146.473L138.876 152.32L141 139.954L132 131.18L144.383 129.383L150 118Z" fill="#FFF9EF"/>
  <path d="M1042 118L1047.62 129.383L1060 131.18L1051 139.954L1053.12 152.32L1042 146.473L1030.88 152.32L1033 139.954L1024 131.18L1036.38 129.383L1042 118Z" fill="#FFF9EF"/>
  <path d="M150 702L155.617 713.383L168 715.18L159 723.954L161.124 736.32L150 730.473L138.876 736.32L141 723.954L132 715.18L144.383 713.383L150 702Z" fill="#FFF9EF"/>
  <path d="M1042 702L1047.62 713.383L1060 715.18L1051 723.954L1053.12 736.32L1042 730.473L1030.88 736.32L1033 723.954L1024 715.18L1036.38 713.383L1042 702Z" fill="#FFF9EF"/>
  <path d="M909 207C915.283 207 920.375 201.909 920.375 195.625C920.375 201.909 925.467 207 931.75 207C925.467 207 920.375 212.091 920.375 218.375C920.375 212.091 915.283 207 909 207Z" fill="#FF7AA2"/>
  <path d="M252 760C258.283 760 263.375 754.909 263.375 748.625C263.375 754.909 268.467 760 274.75 760C268.467 760 263.375 765.091 263.375 771.375C263.375 765.091 258.283 760 252 760Z" fill="#4CC9F0"/>
  <path d="M103 250C111.837 250 119 242.837 119 234C119 242.837 126.163 250 135 250C126.163 250 119 257.163 119 266C119 257.163 111.837 250 103 250Z" fill="#FFD84D"/>
  <path d="M1083 556C1091.84 556 1099 548.837 1099 540C1099 548.837 1106.16 556 1115 556C1106.16 556 1099 563.163 1099 572C1099 563.163 1091.84 556 1083 556Z" fill="#95D46B"/>
  <defs>
    <radialGradient id="paint0_radial" cx="0" cy="0" r="1" gradientUnits="userSpaceOnUse" gradientTransform="translate(600 425) rotate(90) scale(460 680)">
      <stop stop-color="#FFFDF8"/>
      <stop offset="1" stop-color="#FFE8D1"/>
    </radialGradient>
  </defs>
</svg>
